<mxfile host="app.diagrams.net" modified="2023-11-13T06:25:57.537Z" agent="Mozilla/5.0 (Windows NT 10.0; Win64; x64) AppleWebKit/537.36 (KHTML, like Gecko) Chrome/119.0.0.0 Safari/537.36" etag="6OKTuniRRxP8-NPmf835" version="22.1.0" type="google">
  <diagram name="PÃ¡gina-1" id="_qy_Vp3TqDOiHhUizgW4">
    <mxGraphModel grid="1" page="1" gridSize="10" guides="1" tooltips="1" connect="1" arrows="1" fold="1" pageScale="1" pageWidth="827" pageHeight="1169" math="0" shadow="0">
      <root>
        <mxCell id="0" />
        <mxCell id="1" parent="0" />
        <mxCell id="ftlusMvIBtJ7wRkOG0aM-2" value="Diagram Kubernets" style="text;html=1;align=center;verticalAlign=middle;resizable=0;points=[];autosize=1;strokeColor=none;fillColor=none;fontSize=26;" vertex="1" parent="1">
          <mxGeometry x="260" y="40" width="250" height="40" as="geometry" />
        </mxCell>
        <mxCell id="ftlusMvIBtJ7wRkOG0aM-4" value="Cluster Kubernets" style="swimlane;" vertex="1" parent="1">
          <mxGeometry x="150" y="140" width="470" height="410" as="geometry" />
        </mxCell>
        <mxCell id="ftlusMvIBtJ7wRkOG0aM-6" value="Pod Api + Db" style="swimlane;" vertex="1" parent="ftlusMvIBtJ7wRkOG0aM-4">
          <mxGeometry x="70" y="105" width="200" height="200" as="geometry" />
        </mxCell>
        <mxCell id="ftlusMvIBtJ7wRkOG0aM-7" value="API&lt;br&gt;Port: 8080" style="rounded=0;whiteSpace=wrap;html=1;" vertex="1" parent="ftlusMvIBtJ7wRkOG0aM-6">
          <mxGeometry x="40" y="40" width="120" height="60" as="geometry" />
        </mxCell>
        <mxCell id="ftlusMvIBtJ7wRkOG0aM-8" value="DB&lt;br&gt;Postgrest&lt;br&gt;Port: 5432" style="rounded=0;whiteSpace=wrap;html=1;" vertex="1" parent="ftlusMvIBtJ7wRkOG0aM-6">
          <mxGeometry x="40" y="120" width="120" height="60" as="geometry" />
        </mxCell>
        <mxCell id="ftlusMvIBtJ7wRkOG0aM-10" style="edgeStyle=orthogonalEdgeStyle;rounded=0;orthogonalLoop=1;jettySize=auto;html=1;entryX=1;entryY=0.5;entryDx=0;entryDy=0;startArrow=classic;startFill=1;" edge="1" parent="ftlusMvIBtJ7wRkOG0aM-4" source="ftlusMvIBtJ7wRkOG0aM-9" target="ftlusMvIBtJ7wRkOG0aM-6">
          <mxGeometry relative="1" as="geometry" />
        </mxCell>
        <mxCell id="ftlusMvIBtJ7wRkOG0aM-9" value="Service&lt;br&gt;LoadBalancer&lt;br&gt;ExternalIp" style="rounded=0;whiteSpace=wrap;html=1;" vertex="1" parent="ftlusMvIBtJ7wRkOG0aM-4">
          <mxGeometry x="320" y="175" width="120" height="60" as="geometry" />
        </mxCell>
        <mxCell id="ftlusMvIBtJ7wRkOG0aM-11" value="AnyIp" style="rounded=0;whiteSpace=wrap;html=1;" vertex="1" parent="1">
          <mxGeometry x="660" y="315" width="120" height="60" as="geometry" />
        </mxCell>
        <mxCell id="ftlusMvIBtJ7wRkOG0aM-12" style="edgeStyle=orthogonalEdgeStyle;rounded=0;orthogonalLoop=1;jettySize=auto;html=1;entryX=0;entryY=0.5;entryDx=0;entryDy=0;startArrow=classic;startFill=1;" edge="1" parent="1" source="ftlusMvIBtJ7wRkOG0aM-9" target="ftlusMvIBtJ7wRkOG0aM-11">
          <mxGeometry relative="1" as="geometry" />
        </mxCell>
        <mxCell id="ftlusMvIBtJ7wRkOG0aM-13" value="Diagram DabaBase" style="text;html=1;align=center;verticalAlign=middle;resizable=0;points=[];autosize=1;strokeColor=none;fillColor=none;fontSize=26;" vertex="1" parent="1">
          <mxGeometry x="1080" y="30" width="250" height="40" as="geometry" />
        </mxCell>
        <mxCell id="ftlusMvIBtJ7wRkOG0aM-14" value="Postgres" style="swimlane;" vertex="1" parent="1">
          <mxGeometry x="970" y="130" width="570" height="530" as="geometry" />
        </mxCell>
        <mxCell id="ftlusMvIBtJ7wRkOG0aM-18" style="edgeStyle=orthogonalEdgeStyle;rounded=0;orthogonalLoop=1;jettySize=auto;html=1;entryX=1;entryY=0.5;entryDx=0;entryDy=0;startArrow=classic;startFill=1;" edge="1" parent="ftlusMvIBtJ7wRkOG0aM-14">
          <mxGeometry relative="1" as="geometry">
            <mxPoint x="270" y="205" as="targetPoint" />
          </mxGeometry>
        </mxCell>
        <mxCell id="ftlusMvIBtJ7wRkOG0aM-22" value="Users" style="swimlane;fontStyle=0;childLayout=stackLayout;horizontal=1;startSize=30;horizontalStack=0;resizeParent=1;resizeParentMax=0;resizeLast=0;collapsible=1;marginBottom=0;whiteSpace=wrap;html=1;" vertex="1" parent="ftlusMvIBtJ7wRkOG0aM-14">
          <mxGeometry x="50" y="80" width="140" height="210" as="geometry" />
        </mxCell>
        <mxCell id="ftlusMvIBtJ7wRkOG0aM-23" value="email" style="text;strokeColor=none;fillColor=none;align=left;verticalAlign=middle;spacingLeft=4;spacingRight=4;overflow=hidden;points=[[0,0.5],[1,0.5]];portConstraint=eastwest;rotatable=0;whiteSpace=wrap;html=1;" vertex="1" parent="ftlusMvIBtJ7wRkOG0aM-22">
          <mxGeometry y="30" width="140" height="30" as="geometry" />
        </mxCell>
        <mxCell id="ftlusMvIBtJ7wRkOG0aM-38" value="firstname" style="text;strokeColor=none;fillColor=none;align=left;verticalAlign=middle;spacingLeft=4;spacingRight=4;overflow=hidden;points=[[0,0.5],[1,0.5]];portConstraint=eastwest;rotatable=0;whiteSpace=wrap;html=1;" vertex="1" parent="ftlusMvIBtJ7wRkOG0aM-22">
          <mxGeometry y="60" width="140" height="30" as="geometry" />
        </mxCell>
        <mxCell id="ftlusMvIBtJ7wRkOG0aM-44" value="lastname" style="text;strokeColor=none;fillColor=none;align=left;verticalAlign=middle;spacingLeft=4;spacingRight=4;overflow=hidden;points=[[0,0.5],[1,0.5]];portConstraint=eastwest;rotatable=0;whiteSpace=wrap;html=1;" vertex="1" parent="ftlusMvIBtJ7wRkOG0aM-22">
          <mxGeometry y="90" width="140" height="30" as="geometry" />
        </mxCell>
        <mxCell id="ftlusMvIBtJ7wRkOG0aM-45" value="role" style="text;strokeColor=none;fillColor=none;align=left;verticalAlign=middle;spacingLeft=4;spacingRight=4;overflow=hidden;points=[[0,0.5],[1,0.5]];portConstraint=eastwest;rotatable=0;whiteSpace=wrap;html=1;" vertex="1" parent="ftlusMvIBtJ7wRkOG0aM-22">
          <mxGeometry y="120" width="140" height="30" as="geometry" />
        </mxCell>
        <mxCell id="ftlusMvIBtJ7wRkOG0aM-24" value="password" style="text;strokeColor=none;fillColor=none;align=left;verticalAlign=middle;spacingLeft=4;spacingRight=4;overflow=hidden;points=[[0,0.5],[1,0.5]];portConstraint=eastwest;rotatable=0;whiteSpace=wrap;html=1;" vertex="1" parent="ftlusMvIBtJ7wRkOG0aM-22">
          <mxGeometry y="150" width="140" height="30" as="geometry" />
        </mxCell>
        <mxCell id="ftlusMvIBtJ7wRkOG0aM-25" value="create_by" style="text;strokeColor=none;fillColor=none;align=left;verticalAlign=middle;spacingLeft=4;spacingRight=4;overflow=hidden;points=[[0,0.5],[1,0.5]];portConstraint=eastwest;rotatable=0;whiteSpace=wrap;html=1;" vertex="1" parent="ftlusMvIBtJ7wRkOG0aM-22">
          <mxGeometry y="180" width="140" height="30" as="geometry" />
        </mxCell>
        <mxCell id="ftlusMvIBtJ7wRkOG0aM-26" value="Tokens" style="swimlane;fontStyle=0;childLayout=stackLayout;horizontal=1;startSize=30;horizontalStack=0;resizeParent=1;resizeParentMax=0;resizeLast=0;collapsible=1;marginBottom=0;whiteSpace=wrap;html=1;" vertex="1" parent="ftlusMvIBtJ7wRkOG0aM-14">
          <mxGeometry x="350" y="80" width="140" height="120" as="geometry" />
        </mxCell>
        <mxCell id="ftlusMvIBtJ7wRkOG0aM-27" value="token" style="text;strokeColor=none;fillColor=none;align=left;verticalAlign=middle;spacingLeft=4;spacingRight=4;overflow=hidden;points=[[0,0.5],[1,0.5]];portConstraint=eastwest;rotatable=0;whiteSpace=wrap;html=1;" vertex="1" parent="ftlusMvIBtJ7wRkOG0aM-26">
          <mxGeometry y="30" width="140" height="30" as="geometry" />
        </mxCell>
        <mxCell id="ftlusMvIBtJ7wRkOG0aM-28" value="tokenType" style="text;strokeColor=none;fillColor=none;align=left;verticalAlign=middle;spacingLeft=4;spacingRight=4;overflow=hidden;points=[[0,0.5],[1,0.5]];portConstraint=eastwest;rotatable=0;whiteSpace=wrap;html=1;" vertex="1" parent="ftlusMvIBtJ7wRkOG0aM-26">
          <mxGeometry y="60" width="140" height="30" as="geometry" />
        </mxCell>
        <mxCell id="ftlusMvIBtJ7wRkOG0aM-29" value="expired" style="text;strokeColor=none;fillColor=none;align=left;verticalAlign=middle;spacingLeft=4;spacingRight=4;overflow=hidden;points=[[0,0.5],[1,0.5]];portConstraint=eastwest;rotatable=0;whiteSpace=wrap;html=1;" vertex="1" parent="ftlusMvIBtJ7wRkOG0aM-26">
          <mxGeometry y="90" width="140" height="30" as="geometry" />
        </mxCell>
        <mxCell id="ftlusMvIBtJ7wRkOG0aM-30" value="Weather History" style="swimlane;fontStyle=0;childLayout=stackLayout;horizontal=1;startSize=30;horizontalStack=0;resizeParent=1;resizeParentMax=0;resizeLast=0;collapsible=1;marginBottom=0;whiteSpace=wrap;html=1;" vertex="1" parent="ftlusMvIBtJ7wRkOG0aM-14">
          <mxGeometry x="271" y="250" width="140" height="240" as="geometry" />
        </mxCell>
        <mxCell id="ftlusMvIBtJ7wRkOG0aM-31" value="lat" style="text;strokeColor=none;fillColor=none;align=left;verticalAlign=middle;spacingLeft=4;spacingRight=4;overflow=hidden;points=[[0,0.5],[1,0.5]];portConstraint=eastwest;rotatable=0;whiteSpace=wrap;html=1;" vertex="1" parent="ftlusMvIBtJ7wRkOG0aM-30">
          <mxGeometry y="30" width="140" height="30" as="geometry" />
        </mxCell>
        <mxCell id="ftlusMvIBtJ7wRkOG0aM-32" value="lon" style="text;strokeColor=none;fillColor=none;align=left;verticalAlign=middle;spacingLeft=4;spacingRight=4;overflow=hidden;points=[[0,0.5],[1,0.5]];portConstraint=eastwest;rotatable=0;whiteSpace=wrap;html=1;" vertex="1" parent="ftlusMvIBtJ7wRkOG0aM-30">
          <mxGeometry y="60" width="140" height="30" as="geometry" />
        </mxCell>
        <mxCell id="ftlusMvIBtJ7wRkOG0aM-33" value="weather" style="text;strokeColor=none;fillColor=none;align=left;verticalAlign=middle;spacingLeft=4;spacingRight=4;overflow=hidden;points=[[0,0.5],[1,0.5]];portConstraint=eastwest;rotatable=0;whiteSpace=wrap;html=1;" vertex="1" parent="ftlusMvIBtJ7wRkOG0aM-30">
          <mxGeometry y="90" width="140" height="30" as="geometry" />
        </mxCell>
        <mxCell id="ftlusMvIBtJ7wRkOG0aM-34" value="tempMin" style="text;strokeColor=none;fillColor=none;align=left;verticalAlign=middle;spacingLeft=4;spacingRight=4;overflow=hidden;points=[[0,0.5],[1,0.5]];portConstraint=eastwest;rotatable=0;whiteSpace=wrap;html=1;" vertex="1" parent="ftlusMvIBtJ7wRkOG0aM-30">
          <mxGeometry y="120" width="140" height="30" as="geometry" />
        </mxCell>
        <mxCell id="ftlusMvIBtJ7wRkOG0aM-35" value="tempMax" style="text;strokeColor=none;fillColor=none;align=left;verticalAlign=middle;spacingLeft=4;spacingRight=4;overflow=hidden;points=[[0,0.5],[1,0.5]];portConstraint=eastwest;rotatable=0;whiteSpace=wrap;html=1;" vertex="1" parent="ftlusMvIBtJ7wRkOG0aM-30">
          <mxGeometry y="150" width="140" height="30" as="geometry" />
        </mxCell>
        <mxCell id="ftlusMvIBtJ7wRkOG0aM-36" value="humidity" style="text;strokeColor=none;fillColor=none;align=left;verticalAlign=middle;spacingLeft=4;spacingRight=4;overflow=hidden;points=[[0,0.5],[1,0.5]];portConstraint=eastwest;rotatable=0;whiteSpace=wrap;html=1;" vertex="1" parent="ftlusMvIBtJ7wRkOG0aM-30">
          <mxGeometry y="180" width="140" height="30" as="geometry" />
        </mxCell>
        <mxCell id="ftlusMvIBtJ7wRkOG0aM-37" value="created" style="text;strokeColor=none;fillColor=none;align=left;verticalAlign=middle;spacingLeft=4;spacingRight=4;overflow=hidden;points=[[0,0.5],[1,0.5]];portConstraint=eastwest;rotatable=0;whiteSpace=wrap;html=1;" vertex="1" parent="ftlusMvIBtJ7wRkOG0aM-30">
          <mxGeometry y="210" width="140" height="30" as="geometry" />
        </mxCell>
        <mxCell id="ftlusMvIBtJ7wRkOG0aM-46" style="edgeStyle=orthogonalEdgeStyle;rounded=0;orthogonalLoop=1;jettySize=auto;html=1;entryX=0;entryY=0.5;entryDx=0;entryDy=0;" edge="1" parent="ftlusMvIBtJ7wRkOG0aM-14" source="ftlusMvIBtJ7wRkOG0aM-23" target="ftlusMvIBtJ7wRkOG0aM-27">
          <mxGeometry relative="1" as="geometry" />
        </mxCell>
        <mxCell id="ftlusMvIBtJ7wRkOG0aM-47" value="1 - M" style="edgeLabel;html=1;align=center;verticalAlign=middle;resizable=0;points=[];" connectable="0" vertex="1" parent="ftlusMvIBtJ7wRkOG0aM-46">
          <mxGeometry x="-0.025" y="1" relative="1" as="geometry">
            <mxPoint as="offset" />
          </mxGeometry>
        </mxCell>
        <mxCell id="ftlusMvIBtJ7wRkOG0aM-73" value="Security Diagram" style="text;html=1;align=center;verticalAlign=middle;resizable=0;points=[];autosize=1;strokeColor=none;fillColor=none;fontSize=26;" vertex="1" parent="1">
          <mxGeometry x="425" y="1380" width="220" height="40" as="geometry" />
        </mxCell>
        <mxCell id="ftlusMvIBtJ7wRkOG0aM-74" value="Api" style="swimlane;" vertex="1" parent="1">
          <mxGeometry x="300" y="1480" width="570" height="530" as="geometry" />
        </mxCell>
        <mxCell id="ftlusMvIBtJ7wRkOG0aM-75" style="edgeStyle=orthogonalEdgeStyle;rounded=0;orthogonalLoop=1;jettySize=auto;html=1;entryX=1;entryY=0.5;entryDx=0;entryDy=0;startArrow=classic;startFill=1;" edge="1" parent="ftlusMvIBtJ7wRkOG0aM-74">
          <mxGeometry relative="1" as="geometry">
            <mxPoint x="270" y="205" as="targetPoint" />
          </mxGeometry>
        </mxCell>
        <mxCell id="ftlusMvIBtJ7wRkOG0aM-101" style="edgeStyle=orthogonalEdgeStyle;rounded=0;orthogonalLoop=1;jettySize=auto;html=1;entryX=0.5;entryY=1;entryDx=0;entryDy=0;" edge="1" parent="ftlusMvIBtJ7wRkOG0aM-74" source="ftlusMvIBtJ7wRkOG0aM-98" target="ftlusMvIBtJ7wRkOG0aM-100">
          <mxGeometry relative="1" as="geometry" />
        </mxCell>
        <mxCell id="ftlusMvIBtJ7wRkOG0aM-98" value="JwtAuthFilter" style="rounded=0;whiteSpace=wrap;html=1;" vertex="1" parent="ftlusMvIBtJ7wRkOG0aM-74">
          <mxGeometry x="60" y="234" width="120" height="60" as="geometry" />
        </mxCell>
        <mxCell id="ftlusMvIBtJ7wRkOG0aM-103" style="edgeStyle=orthogonalEdgeStyle;rounded=0;orthogonalLoop=1;jettySize=auto;html=1;entryX=0;entryY=0.5;entryDx=0;entryDy=0;" edge="1" parent="ftlusMvIBtJ7wRkOG0aM-74" source="ftlusMvIBtJ7wRkOG0aM-100" target="ftlusMvIBtJ7wRkOG0aM-102">
          <mxGeometry relative="1" as="geometry" />
        </mxCell>
        <mxCell id="ftlusMvIBtJ7wRkOG0aM-100" value="Validate Token" style="rounded=0;whiteSpace=wrap;html=1;" vertex="1" parent="ftlusMvIBtJ7wRkOG0aM-74">
          <mxGeometry x="60" y="90" width="120" height="60" as="geometry" />
        </mxCell>
        <mxCell id="ftlusMvIBtJ7wRkOG0aM-111" style="edgeStyle=orthogonalEdgeStyle;rounded=0;orthogonalLoop=1;jettySize=auto;html=1;entryX=0.5;entryY=0;entryDx=0;entryDy=0;" edge="1" parent="ftlusMvIBtJ7wRkOG0aM-74" source="ftlusMvIBtJ7wRkOG0aM-102" target="ftlusMvIBtJ7wRkOG0aM-110">
          <mxGeometry relative="1" as="geometry" />
        </mxCell>
        <mxCell id="ftlusMvIBtJ7wRkOG0aM-102" value="Validate User" style="rounded=0;whiteSpace=wrap;html=1;" vertex="1" parent="ftlusMvIBtJ7wRkOG0aM-74">
          <mxGeometry x="240" y="90" width="120" height="60" as="geometry" />
        </mxCell>
        <mxCell id="ftlusMvIBtJ7wRkOG0aM-104" value="DB" style="shape=cylinder3;whiteSpace=wrap;html=1;boundedLbl=1;backgroundOutline=1;size=15;" vertex="1" parent="ftlusMvIBtJ7wRkOG0aM-74">
          <mxGeometry x="470" y="80" width="60" height="80" as="geometry" />
        </mxCell>
        <mxCell id="ftlusMvIBtJ7wRkOG0aM-105" style="edgeStyle=orthogonalEdgeStyle;rounded=0;orthogonalLoop=1;jettySize=auto;html=1;entryX=0;entryY=0.5;entryDx=0;entryDy=0;entryPerimeter=0;" edge="1" parent="ftlusMvIBtJ7wRkOG0aM-74" source="ftlusMvIBtJ7wRkOG0aM-102" target="ftlusMvIBtJ7wRkOG0aM-104">
          <mxGeometry relative="1" as="geometry" />
        </mxCell>
        <mxCell id="ftlusMvIBtJ7wRkOG0aM-109" value="Find if exist user" style="edgeLabel;html=1;align=center;verticalAlign=middle;resizable=0;points=[];" connectable="0" vertex="1" parent="ftlusMvIBtJ7wRkOG0aM-105">
          <mxGeometry x="0.1416" y="-1" relative="1" as="geometry">
            <mxPoint as="offset" />
          </mxGeometry>
        </mxCell>
        <mxCell id="ftlusMvIBtJ7wRkOG0aM-107" style="edgeStyle=orthogonalEdgeStyle;rounded=0;orthogonalLoop=1;jettySize=auto;html=1;entryX=0.5;entryY=0;entryDx=0;entryDy=0;entryPerimeter=0;" edge="1" parent="ftlusMvIBtJ7wRkOG0aM-74" source="ftlusMvIBtJ7wRkOG0aM-100" target="ftlusMvIBtJ7wRkOG0aM-104">
          <mxGeometry relative="1" as="geometry">
            <Array as="points">
              <mxPoint x="120" y="60" />
              <mxPoint x="500" y="60" />
            </Array>
          </mxGeometry>
        </mxCell>
        <mxCell id="ftlusMvIBtJ7wRkOG0aM-108" value="Find if exist token" style="edgeLabel;html=1;align=center;verticalAlign=middle;resizable=0;points=[];" connectable="0" vertex="1" parent="ftlusMvIBtJ7wRkOG0aM-107">
          <mxGeometry x="-0.2945" y="3" relative="1" as="geometry">
            <mxPoint as="offset" />
          </mxGeometry>
        </mxCell>
        <mxCell id="ftlusMvIBtJ7wRkOG0aM-114" style="edgeStyle=orthogonalEdgeStyle;rounded=0;orthogonalLoop=1;jettySize=auto;html=1;entryX=0.5;entryY=0;entryDx=0;entryDy=0;" edge="1" parent="ftlusMvIBtJ7wRkOG0aM-74" source="ftlusMvIBtJ7wRkOG0aM-110" target="ftlusMvIBtJ7wRkOG0aM-112">
          <mxGeometry relative="1" as="geometry" />
        </mxCell>
        <mxCell id="ftlusMvIBtJ7wRkOG0aM-110" value="Update SecurityContextHolder" style="rounded=0;whiteSpace=wrap;html=1;" vertex="1" parent="ftlusMvIBtJ7wRkOG0aM-74">
          <mxGeometry x="330" y="235" width="120" height="60" as="geometry" />
        </mxCell>
        <mxCell id="ftlusMvIBtJ7wRkOG0aM-115" style="edgeStyle=orthogonalEdgeStyle;rounded=0;orthogonalLoop=1;jettySize=auto;html=1;entryX=1;entryY=0.5;entryDx=0;entryDy=0;" edge="1" parent="ftlusMvIBtJ7wRkOG0aM-74" source="ftlusMvIBtJ7wRkOG0aM-112" target="ftlusMvIBtJ7wRkOG0aM-113">
          <mxGeometry relative="1" as="geometry" />
        </mxCell>
        <mxCell id="ftlusMvIBtJ7wRkOG0aM-112" value="DispatcherServlet" style="rounded=0;whiteSpace=wrap;html=1;" vertex="1" parent="ftlusMvIBtJ7wRkOG0aM-74">
          <mxGeometry x="330" y="350" width="120" height="60" as="geometry" />
        </mxCell>
        <mxCell id="ftlusMvIBtJ7wRkOG0aM-113" value="Controller" style="rounded=0;whiteSpace=wrap;html=1;" vertex="1" parent="ftlusMvIBtJ7wRkOG0aM-74">
          <mxGeometry x="150" y="420" width="120" height="60" as="geometry" />
        </mxCell>
        <mxCell id="ftlusMvIBtJ7wRkOG0aM-118" value="1" style="ellipse;whiteSpace=wrap;html=1;aspect=fixed;strokeWidth=2;fontFamily=Tahoma;spacingBottom=4;spacingRight=2;strokeColor=#d3d3d3;" vertex="1" parent="ftlusMvIBtJ7wRkOG0aM-74">
          <mxGeometry x="30" y="215" width="20" height="20" as="geometry" />
        </mxCell>
        <mxCell id="ftlusMvIBtJ7wRkOG0aM-119" value="2" style="ellipse;whiteSpace=wrap;html=1;aspect=fixed;strokeWidth=2;fontFamily=Tahoma;spacingBottom=4;spacingRight=2;strokeColor=#d3d3d3;" vertex="1" parent="ftlusMvIBtJ7wRkOG0aM-74">
          <mxGeometry x="30" y="110" width="20" height="20" as="geometry" />
        </mxCell>
        <mxCell id="ftlusMvIBtJ7wRkOG0aM-120" value="3" style="ellipse;whiteSpace=wrap;html=1;aspect=fixed;strokeWidth=2;fontFamily=Tahoma;spacingBottom=4;spacingRight=2;strokeColor=#d3d3d3;" vertex="1" parent="ftlusMvIBtJ7wRkOG0aM-74">
          <mxGeometry x="210" y="90" width="20" height="20" as="geometry" />
        </mxCell>
        <mxCell id="ftlusMvIBtJ7wRkOG0aM-121" value="4" style="ellipse;whiteSpace=wrap;html=1;aspect=fixed;strokeWidth=2;fontFamily=Tahoma;spacingBottom=4;spacingRight=2;strokeColor=#d3d3d3;" vertex="1" parent="ftlusMvIBtJ7wRkOG0aM-74">
          <mxGeometry x="330" y="210" width="20" height="20" as="geometry" />
        </mxCell>
        <mxCell id="ftlusMvIBtJ7wRkOG0aM-122" value="5" style="ellipse;whiteSpace=wrap;html=1;aspect=fixed;strokeWidth=2;fontFamily=Tahoma;spacingBottom=4;spacingRight=2;strokeColor=#d3d3d3;" vertex="1" parent="ftlusMvIBtJ7wRkOG0aM-74">
          <mxGeometry x="330" y="320" width="20" height="20" as="geometry" />
        </mxCell>
        <mxCell id="ftlusMvIBtJ7wRkOG0aM-123" value="6" style="ellipse;whiteSpace=wrap;html=1;aspect=fixed;strokeWidth=2;fontFamily=Tahoma;spacingBottom=4;spacingRight=2;strokeColor=#d3d3d3;" vertex="1" parent="ftlusMvIBtJ7wRkOG0aM-74">
          <mxGeometry x="174" y="390" width="20" height="20" as="geometry" />
        </mxCell>
        <mxCell id="ftlusMvIBtJ7wRkOG0aM-99" style="edgeStyle=orthogonalEdgeStyle;rounded=0;orthogonalLoop=1;jettySize=auto;html=1;entryX=0;entryY=0.5;entryDx=0;entryDy=0;" edge="1" parent="1" source="ftlusMvIBtJ7wRkOG0aM-97" target="ftlusMvIBtJ7wRkOG0aM-98">
          <mxGeometry relative="1" as="geometry" />
        </mxCell>
        <mxCell id="ftlusMvIBtJ7wRkOG0aM-97" value="Request" style="rounded=0;whiteSpace=wrap;html=1;" vertex="1" parent="1">
          <mxGeometry x="120" y="1714" width="120" height="60" as="geometry" />
        </mxCell>
        <mxCell id="ftlusMvIBtJ7wRkOG0aM-116" style="edgeStyle=orthogonalEdgeStyle;rounded=0;orthogonalLoop=1;jettySize=auto;html=1;entryX=0.5;entryY=1;entryDx=0;entryDy=0;" edge="1" parent="1" source="ftlusMvIBtJ7wRkOG0aM-113" target="ftlusMvIBtJ7wRkOG0aM-97">
          <mxGeometry relative="1" as="geometry" />
        </mxCell>
        <mxCell id="ftlusMvIBtJ7wRkOG0aM-117" value="Result Ok" style="edgeLabel;html=1;align=center;verticalAlign=middle;resizable=0;points=[];" connectable="0" vertex="1" parent="ftlusMvIBtJ7wRkOG0aM-116">
          <mxGeometry x="-0.5709" y="3" relative="1" as="geometry">
            <mxPoint as="offset" />
          </mxGeometry>
        </mxCell>
        <mxCell id="ftlusMvIBtJ7wRkOG0aM-124" value="7" style="ellipse;whiteSpace=wrap;html=1;aspect=fixed;strokeWidth=2;fontFamily=Tahoma;spacingBottom=4;spacingRight=2;strokeColor=#d3d3d3;" vertex="1" parent="1">
          <mxGeometry x="200" y="1800" width="20" height="20" as="geometry" />
        </mxCell>
      </root>
    </mxGraphModel>
  </diagram>
</mxfile>
